<svg width="24" height="24" viewBox="0 0 24 24" fill="none" xmlns="http://www.w3.org/2000/svg">
<path fill-rule="evenodd" clip-rule="evenodd" d="M7 3.25012C7.41421 3.25012 7.75 3.58591 7.75 4.00012V5.66775C10.5777 5.41592 13.4223 5.41592 16.25 5.66775V4.00012C16.25 3.58591 16.5858 3.25012 17 3.25012C17.4142 3.25012 17.75 3.58591 17.75 4.00012V5.81656C19.243 6.02766 20.4226 7.20859 20.6222 8.71496L20.7088 9.36791C21.0728 12.1142 21.0414 14.8985 20.6154 17.636C20.4044 18.992 19.3028 20.0336 17.937 20.1682L16.744 20.2859C13.589 20.597 10.411 20.597 7.25593 20.2859L6.06292 20.1682C4.69718 20.0336 3.59552 18.992 3.38451 17.636C2.95855 14.8985 2.92711 12.1142 3.29115 9.36791L3.3777 8.71496C3.57738 7.20857 4.75693 6.02763 6.25 5.81655V4.00012C6.25 3.58591 6.58579 3.25012 7 3.25012ZM7.44516 7.20292C10.4744 6.9042 13.5256 6.9042 16.5548 7.20292L17.4602 7.29222C18.327 7.37769 19.0208 8.04866 19.1352 8.91206L19.2218 9.56501C19.252 9.79312 19.2794 10.0215 19.3039 10.2501H4.69606C4.72055 10.0215 4.7479 9.79313 4.77814 9.56502L4.86469 8.91206C4.97914 8.04866 5.67296 7.37769 6.53971 7.29222L7.44516 7.20292ZM4.57683 11.7501C4.47865 13.6382 4.57538 15.5333 4.86667 17.4053C4.97251 18.0855 5.52509 18.6079 6.21013 18.6755L7.40314 18.7931C10.4603 19.0946 13.5397 19.0946 16.5968 18.7931L17.7898 18.6755C18.4748 18.6079 19.0274 18.0855 19.1333 17.4053C19.4246 15.5333 19.5213 13.6382 19.4231 11.7501H4.57683Z" fill="#299B9B"/>
</svg>
