<svg width="40" height="40" viewBox="0 0 40 40" fill="none" xmlns="http://www.w3.org/2000/svg">
<path d="M27.3346 33.4998H6.0013C3.66797 33.4998 1.66797 31.4998 1.66797 29.1665V16.9998C1.66797 14.6665 3.66797 12.6665 6.0013 12.6665H27.3346C29.668 12.6665 31.668 14.6665 31.668 16.9998V29.1665C31.668 31.4998 29.668 33.4998 27.3346 33.4998ZM6.0013 15.9998C5.5013 15.9998 5.0013 16.4998 5.0013 16.9998V29.1665C5.0013 29.6665 5.5013 30.1665 6.0013 30.1665H27.3346C27.8346 30.1665 28.3346 29.6665 28.3346 29.1665V16.9998C28.3346 16.4998 27.8346 15.9998 27.3346 15.9998H6.0013Z" fill="#3B0763"/>
<path d="M36.6654 26.8332C35.6654 26.8332 34.9987 26.1665 34.9987 25.1665V11.1665C34.9987 10.4998 34.6654 9.99984 34.1654 9.99984H8.4987C7.4987 9.99984 6.83203 9.33317 6.83203 8.33317C6.83203 7.33317 7.4987 6.6665 8.4987 6.6665H34.1654C36.4987 6.6665 38.3321 8.6665 38.3321 11.1665V25.1665C38.3321 25.9998 37.6654 26.8332 36.6654 26.8332Z" fill="#3B0763"/>
<path d="M16.6654 28.3332C13.6654 28.3332 11.332 25.9998 11.332 22.9998C11.332 19.9998 13.6654 17.6665 16.6654 17.6665C19.6654 17.6665 21.9987 19.9998 21.9987 22.9998C21.9987 25.9998 19.6654 28.3332 16.6654 28.3332ZM16.6654 21.1665C15.4987 21.1665 14.6654 21.9998 14.6654 23.1665C14.6654 24.3332 15.4987 24.9998 16.6654 24.9998C17.832 24.9998 18.6654 24.1665 18.6654 22.9998C18.6654 21.8332 17.832 21.1665 16.6654 21.1665Z" fill="#3B0763"/>
<path d="M8.16667 24.1668C8.811 24.1668 9.33333 23.6445 9.33333 23.0002C9.33333 22.3558 8.811 21.8335 8.16667 21.8335C7.52233 21.8335 7 22.3558 7 23.0002C7 23.6445 7.52233 24.1668 8.16667 24.1668Z" fill="#3B0763"/>
<path d="M25.1667 24.1668C25.811 24.1668 26.3333 23.6445 26.3333 23.0002C26.3333 22.3558 25.811 21.8335 25.1667 21.8335C24.5223 21.8335 24 22.3558 24 23.0002C24 23.6445 24.5223 24.1668 25.1667 24.1668Z" fill="#3B0763"/>
</svg>
