<svg width="18" height="18" viewBox="0 0 18 18" fill="none" xmlns="http://www.w3.org/2000/svg">
<path fill-rule="evenodd" clip-rule="evenodd" d="M3.99933 0.250031C4.41354 0.250031 4.74933 0.585821 4.74933 1.00003V2.66766C7.57703 2.41583 10.4216 2.41583 13.2493 2.66766V1.00003C13.2493 0.585821 13.5851 0.250031 13.9993 0.250031C14.4135 0.250031 14.7493 0.585821 14.7493 1.00003V2.81647C16.2423 3.02757 17.4219 4.2085 17.6215 5.71487L17.7081 6.36782C18.0721 9.11413 18.0407 11.8984 17.6147 14.6359C17.4037 15.9919 16.3021 17.0335 14.9363 17.1681L13.7433 17.2858C10.5883 17.5969 7.41033 17.5969 4.25526 17.2858L3.06225 17.1681C1.69651 17.0335 0.594851 15.9919 0.383841 14.6359C-0.0421193 11.8984 -0.0735592 9.11413 0.290481 6.36782L0.377031 5.71487C0.576711 4.20848 1.75626 3.02754 3.24933 2.81646V1.00003C3.24933 0.585821 3.58512 0.250031 3.99933 0.250031ZM4.44449 4.20283C7.47373 3.90411 10.5249 3.90411 13.5541 4.20283L14.4595 4.29213C15.3263 4.3776 16.0201 5.04857 16.1345 5.91197L16.2211 6.56492C16.2513 6.79303 16.2787 7.02143 16.3032 7.25003H1.69539C1.71988 7.02143 1.74723 6.79304 1.77747 6.56493L1.86402 5.91197C1.97847 5.04857 2.67229 4.3776 3.53904 4.29213L4.44449 4.20283ZM1.57616 8.75003C1.47798 10.6381 1.57471 12.5332 1.866 14.4052C1.97184 15.0854 2.52442 15.6078 3.20946 15.6754L4.40247 15.793C7.45963 16.0945 10.539 16.0945 13.5961 15.793L14.7891 15.6754C15.4741 15.6078 16.0267 15.0854 16.1326 14.4052C16.4239 12.5332 16.5206 10.6381 16.4224 8.75003H1.57616Z" fill="#8FA0A0"/>
</svg>
