<svg width="24" height="24" viewBox="0 0 24 24" fill="none" xmlns="http://www.w3.org/2000/svg">
<path d="M14.6846 11.5125L6.38281 10.05V20.8568C6.38291 20.9742 6.40613 21.0904 6.45115 21.1988C6.49617 21.3072 6.5621 21.4057 6.64519 21.4887C6.72827 21.5716 6.82688 21.6374 6.93539 21.6822C7.04389 21.7271 7.16016 21.7501 7.27756 21.75H21.6026C21.7201 21.7503 21.8365 21.7274 21.9452 21.6827C22.0539 21.6379 22.1527 21.5722 22.2359 21.4892C22.3192 21.4063 22.3852 21.3077 22.4303 21.1992C22.4754 21.0906 22.4987 20.9743 22.4988 20.8568V16.875L14.6846 11.5125Z" fill="#185C37"/>
<path d="M14.6846 2.25H7.27756C7.16016 2.2499 7.04389 2.27293 6.93539 2.31776C6.82688 2.3626 6.72827 2.42837 6.64519 2.51132C6.5621 2.59426 6.49617 2.69276 6.45115 2.80119C6.40613 2.90962 6.38291 3.02585 6.38281 3.14325V7.125L14.6846 12L19.0803 13.4625L22.4988 12V7.125L14.6846 2.25Z" fill="#21A366"/>
<path d="M6.38281 7.125H14.6846V12H6.38281V7.125Z" fill="#107C41"/>
<path opacity="0.1" d="M12.3243 6.15H6.38281V18.3375H12.3243C12.5611 18.3363 12.7878 18.2419 12.9554 18.0747C13.1231 17.9075 13.218 17.681 13.2198 17.4443V7.04325C13.218 6.80651 13.1231 6.57999 12.9554 6.41279C12.7878 6.2456 12.5611 6.15118 12.3243 6.15Z" fill="black"/>
<path opacity="0.2" d="M11.8361 6.6375H6.38281V18.825H11.8361C12.0728 18.8238 12.2996 18.7294 12.4672 18.5622C12.6348 18.395 12.7298 18.1685 12.7316 17.9317V7.53075C12.7298 7.294 12.6348 7.06749 12.4672 6.90029C12.2996 6.73309 12.0728 6.63867 11.8361 6.6375Z" fill="black"/>
<path opacity="0.2" d="M11.8361 6.6375H6.38281V17.85H11.8361C12.0728 17.8488 12.2996 17.7544 12.4672 17.5872C12.6348 17.42 12.7298 17.1935 12.7316 16.9567V7.53075C12.7298 7.294 12.6348 7.06749 12.4672 6.90029C12.2996 6.73309 12.0728 6.63867 11.8361 6.6375Z" fill="black"/>
<path opacity="0.2" d="M11.3478 6.6375H6.38281V17.85H11.3478C11.5846 17.8488 11.8113 17.7544 11.9789 17.5872C12.1466 17.42 12.2415 17.1935 12.2433 16.9567V7.53075C12.2415 7.294 12.1466 7.06749 11.9789 6.90029C11.8113 6.73309 11.5846 6.63867 11.3478 6.6375Z" fill="black"/>
<path d="M2.3955 6.6375H11.349C11.5862 6.6373 11.8137 6.73127 11.9816 6.89877C12.1496 7.06626 12.2441 7.29358 12.2445 7.53075V16.4692C12.2441 16.7064 12.1496 16.9337 11.9816 17.1012C11.8137 17.2687 11.5862 17.3627 11.349 17.3625H2.3955C2.27804 17.3627 2.16168 17.3397 2.05309 17.2949C1.9445 17.2502 1.84581 17.1844 1.76264 17.1014C1.67948 17.0185 1.61348 16.92 1.56841 16.8115C1.52334 16.703 1.5001 16.5867 1.5 16.4692V7.53075C1.5001 7.41328 1.52334 7.29699 1.56841 7.18851C1.61348 7.08004 1.67948 6.9815 1.76264 6.89855C1.84581 6.81559 1.9445 6.74984 2.05309 6.70505C2.16168 6.66025 2.27804 6.6373 2.3955 6.6375Z" fill="url(#paint0_linear_878_48373)"/>
<path d="M4.27344 14.9048L6.15669 11.9918L4.43169 9.09525H5.81694L6.75819 10.95C6.84519 11.1255 6.90819 11.256 6.93669 11.343H6.94944C7.01094 11.202 7.07619 11.0663 7.14444 10.9335L8.15094 9.09825H9.42594L7.65669 11.9783L9.47094 14.907H8.11419L7.02669 12.8738C6.97619 12.7863 6.93329 12.6947 6.89844 12.6H6.88044C6.84873 12.6923 6.80645 12.7807 6.75444 12.8633L5.63469 14.9048H4.27344Z" fill="white"/>
<path d="M21.6063 2.25H14.6875V7.125H22.5018V3.14325C22.5017 3.02579 22.4784 2.90949 22.4333 2.80102C22.3883 2.69254 22.3223 2.59401 22.2391 2.51105C22.1559 2.4281 22.0572 2.36234 21.9487 2.31755C21.8401 2.27276 21.7237 2.2498 21.6063 2.25Z" fill="#33C481"/>
<path d="M14.6875 12H22.5018V16.875H14.6875V12Z" fill="#107C41"/>
<defs>
<linearGradient id="paint0_linear_878_48373" x1="3.3705" y1="5.9355" x2="10.374" y2="18.0645" gradientUnits="userSpaceOnUse">
<stop stop-color="#18884F"/>
<stop offset="0.5" stop-color="#117E43"/>
<stop offset="1" stop-color="#0B6631"/>
</linearGradient>
</defs>
</svg>
