<svg width="24" height="25" viewBox="0 0 24 25" fill="none" xmlns="http://www.w3.org/2000/svg">
<path fill-rule="evenodd" clip-rule="evenodd" d="M8.25 12.5C8.25 10.4289 9.92893 8.75 12 8.75C14.0711 8.75 15.75 10.4289 15.75 12.5C15.75 14.5711 14.0711 16.25 12 16.25C9.92893 16.25 8.25 14.5711 8.25 12.5ZM12 10.25C10.7574 10.25 9.75 11.2574 9.75 12.5C9.75 13.7426 10.7574 14.75 12 14.75C13.2426 14.75 14.25 13.7426 14.25 12.5C14.25 11.2574 13.2426 10.25 12 10.25Z" fill="#299B9B"/>
<path fill-rule="evenodd" clip-rule="evenodd" d="M4.32343 11.1464C3.90431 11.7503 3.75 12.2227 3.75 12.5C3.75 12.7773 3.90431 13.2497 4.32343 13.8536C4.72857 14.4374 5.33078 15.0703 6.09267 15.655C7.61978 16.8271 9.71345 17.75 12 17.75C14.2865 17.75 16.3802 16.8271 17.9073 15.655C18.6692 15.0703 19.2714 14.4374 19.6766 13.8536C20.0957 13.2497 20.25 12.7773 20.25 12.5C20.25 12.2227 20.0957 11.7503 19.6766 11.1464C19.2714 10.5626 18.6692 9.92972 17.9073 9.34497C16.3802 8.17292 14.2865 7.25 12 7.25C9.71345 7.25 7.61978 8.17292 6.09267 9.34497C5.33078 9.92972 4.72857 10.5626 4.32343 11.1464ZM5.17941 8.15503C6.90965 6.82708 9.31598 5.75 12 5.75C14.684 5.75 17.0903 6.82708 18.8206 8.15503C19.6874 8.82028 20.4032 9.56244 20.9089 10.2912C21.4006 10.9997 21.75 11.7773 21.75 12.5C21.75 13.2227 21.4006 14.0003 20.9089 14.7089C20.4032 15.4376 19.6874 16.1797 18.8206 16.845C17.0903 18.1729 14.684 19.25 12 19.25C9.31598 19.25 6.90965 18.1729 5.17941 16.845C4.31262 16.1797 3.59681 15.4376 3.0911 14.7089C2.59937 14.0003 2.25 13.2227 2.25 12.5C2.25 11.7773 2.59937 10.9997 3.0911 10.2912C3.59681 9.56244 4.31262 8.82028 5.17941 8.15503Z" fill="#299B9B"/>
</svg>
