<svg width="28" height="28" viewBox="0 0 28 28" fill="none" xmlns="http://www.w3.org/2000/svg">
<circle cx="14" cy="14" r="13.5" fill="#FAFDFD" stroke="#E1E4E4"/>
<circle cx="23.5" cy="4.5" r="3.5" fill="#336666"/>
<g clip-path="url(#clip0_1330_117601)">
<path d="M18.6667 9.33333H15.75C15.75 8.71449 15.5042 8.121 15.0666 7.68342C14.629 7.24583 14.0355 7 13.4167 7H9.33333C8.71449 7 8.121 7.24583 7.68342 7.68342C7.24583 8.121 7 8.71449 7 9.33333L7 20.4167C7 20.5714 7.06146 20.7197 7.17085 20.8291C7.28025 20.9385 7.42862 21 7.58333 21C7.73804 21 7.88642 20.9385 7.99581 20.8291C8.10521 20.7197 8.16667 20.5714 8.16667 20.4167V14.5833H12.8333C12.8333 15.2022 13.0792 15.7957 13.5168 16.2332C13.9543 16.6708 14.5478 16.9167 15.1667 16.9167H18.6667C19.2855 16.9167 19.879 16.6708 20.3166 16.2332C20.7542 15.7957 21 15.2022 21 14.5833V11.6667C21 11.0478 20.7542 10.4543 20.3166 10.0168C19.879 9.57917 19.2855 9.33333 18.6667 9.33333ZM8.16667 13.4167V9.33333C8.16667 9.02391 8.28958 8.72717 8.50838 8.50838C8.72717 8.28958 9.02391 8.16667 9.33333 8.16667H13.4167C13.7261 8.16667 14.0228 8.28958 14.2416 8.50838C14.4604 8.72717 14.5833 9.02391 14.5833 9.33333V12.25C14.5833 12.5594 14.4604 12.8562 14.2416 13.075C14.0228 13.2937 13.7261 13.4167 13.4167 13.4167H8.16667ZM19.8333 14.5833C19.8333 14.8928 19.7104 15.1895 19.4916 15.4083C19.2728 15.6271 18.9761 15.75 18.6667 15.75H15.1667C14.8572 15.75 14.5605 15.6271 14.3417 15.4083C14.1229 15.1895 14 14.8928 14 14.5833V14.5005C14.4994 14.3716 14.942 14.0808 15.2587 13.6736C15.5753 13.2664 15.7481 12.7658 15.75 12.25V10.5H18.6667C18.9761 10.5 19.2728 10.6229 19.4916 10.8417C19.7104 11.0605 19.8333 11.3572 19.8333 11.6667V14.5833Z" fill="#374957"/>
</g>
<defs>
<clipPath id="clip0_1330_117601">
<rect width="14" height="14" fill="white" transform="translate(7 7)"/>
</clipPath>
</defs>
</svg>
