<svg width="28" height="28" viewBox="0 0 28 28" fill="none" xmlns="http://www.w3.org/2000/svg">
<circle cx="14" cy="14" r="13.5" fill="#FAFDFD" stroke="#E1E4E4"/>
<circle cx="23.5" cy="4.5" r="3.5" fill="#057CD1"/>
<g clip-path="url(#clip0_1330_117592)">
<path d="M14.1678 21C14.0416 21 13.9188 20.9591 13.8178 20.8833L11.4845 19.1333C11.4121 19.079 11.3533 19.0085 11.3128 18.9275C11.2723 18.8465 11.2512 18.7572 11.2512 18.6667V15.3883L7.1585 10.7841C6.86784 10.4562 6.67806 10.0513 6.61197 9.61814C6.54587 9.18496 6.60629 8.74192 6.78594 8.34226C6.9656 7.94259 7.25685 7.60332 7.62469 7.3652C7.99253 7.12709 8.42132 7.00028 8.8595 7H17.1428C17.581 7.00051 18.0097 7.12754 18.3774 7.36581C18.745 7.60408 19.0361 7.94347 19.2156 8.34317C19.395 8.74288 19.4553 9.18591 19.389 9.61902C19.3228 10.0521 19.1328 10.4569 18.8421 10.7847L14.7512 15.3883V20.4167C14.7512 20.5714 14.6897 20.7197 14.5803 20.8291C14.4709 20.9385 14.3225 21 14.1678 21ZM12.4178 18.375L13.5845 19.25V15.1667C13.5846 15.0238 13.6371 14.886 13.7321 14.7793L17.9718 10.0094C18.1131 9.84963 18.2054 9.65244 18.2374 9.44151C18.2695 9.23059 18.24 9.01489 18.1525 8.82032C18.0649 8.62576 17.9231 8.46058 17.744 8.34463C17.5649 8.22869 17.3562 8.16689 17.1428 8.16667H8.8595C8.64627 8.16699 8.43765 8.22882 8.25867 8.34474C8.07969 8.46066 7.93796 8.62575 7.85046 8.8202C7.76296 9.01466 7.73341 9.23023 7.76536 9.44106C7.79731 9.65189 7.8894 9.84903 8.03059 10.0088L12.2708 14.7793C12.3656 14.8861 12.4179 15.0239 12.4178 15.1667V18.375Z" fill="#374957"/>
</g>
<defs>
<clipPath id="clip0_1330_117592">
<rect width="14" height="14" fill="white" transform="translate(6 7)"/>
</clipPath>
</defs>
</svg>
