<svg width="24" height="24" viewBox="0 0 24 24" fill="none" xmlns="http://www.w3.org/2000/svg">
<path d="M5.89566 2.8175L5.89566 2.81749C5.99209 2.35127 6.37335 1.95997 6.82805 1.87961L5.89566 2.8175ZM5.89566 2.8175C5.88941 2.84772 5.88574 2.89735 5.88279 2.9503C5.87958 3.00796 5.87665 3.08324 5.87397 3.17303C5.8686 3.35281 5.86416 3.59408 5.86061 3.87586C5.85351 4.43961 5.84997 5.16791 5.85 5.89591C5.85003 6.62392 5.85361 7.35222 5.86075 7.91598C5.86432 8.19777 5.86879 8.43904 5.87417 8.61883C5.87685 8.70863 5.87979 8.78391 5.88301 8.84158C5.88596 8.89453 5.88964 8.94417 5.89589 8.97439L5.89589 8.9744M5.89566 2.8175L5.89589 8.9744M5.89589 8.9744C5.92451 9.11274 6.00478 9.28858 6.09135 9.40618M5.89589 8.9744L6.09135 9.40618M5.87054 20.0984L5.87047 20.0649L5.86033 15.1594C5.85677 13.4396 5.85732 12.1973 5.86237 11.3667C5.8649 10.9516 5.86856 10.6386 5.87342 10.4202C5.87585 10.311 5.87859 10.2246 5.8817 10.1604C5.88457 10.1008 5.88814 10.0493 5.89438 10.0181L5.87054 20.0984ZM5.87054 20.0984L5.8849 20.1287M5.87054 20.0984L5.8849 20.1287M5.8849 20.1287L5.99095 20.3527M5.8849 20.1287L17.1376 20.0649M17.1376 20.0649L17.1375 20.0984L17.1231 20.1287L17.0171 20.3527C16.9241 20.5492 16.7993 20.706 16.6326 20.8211C16.4668 20.9356 16.2685 21.0027 16.0373 21.0341L15.9881 21.0407V21.3641C15.9881 21.401 15.9884 21.4372 15.9887 21.4723C15.9897 21.5871 15.9906 21.69 15.98 21.7701C15.9726 21.8261 15.9583 21.8849 15.9272 21.9389C15.8945 21.9958 15.848 22.0388 15.7901 22.0694C15.6861 22.1245 15.5429 22.1394 15.373 22.1457C15.2401 22.1506 15.0705 22.1502 14.8591 22.1497C14.7898 22.1495 14.7159 22.1494 14.6374 22.1494C14.5585 22.1494 14.4844 22.1495 14.4148 22.1497C14.2011 22.1502 14.0299 22.1506 13.8956 22.1457C13.7242 22.1394 13.5805 22.1245 13.4761 22.07C13.418 22.0397 13.3711 21.9971 13.338 21.9403C13.3064 21.8863 13.2919 21.8275 13.2844 21.7715C13.2736 21.6915 13.2745 21.5886 13.2755 21.4741C13.2758 21.4394 13.2761 21.4037 13.2761 21.3672V21.0549H11.504H9.73195V21.3617C9.73195 21.399 9.73227 21.4355 9.73258 21.4708C9.73358 21.5859 9.73448 21.6889 9.72393 21.7691C9.71654 21.8253 9.70234 21.8842 9.67131 21.9383C9.63865 21.9952 9.5923 22.0384 9.53428 22.0692C9.4302 22.1245 9.28691 22.1394 9.11703 22.1457C8.98424 22.1506 8.81495 22.1502 8.60383 22.1497C8.53424 22.1496 8.4601 22.1494 8.38122 22.1494C8.30281 22.1494 8.22906 22.1495 8.15977 22.1497C7.94561 22.1502 7.7741 22.1506 7.63963 22.1456C7.46827 22.1394 7.32462 22.1245 7.22031 22.0703C7.16224 22.0401 7.11535 21.9976 7.08209 21.941C7.05043 21.8871 7.03588 21.8284 7.02829 21.7724C7.01745 21.6925 7.01834 21.5898 7.01934 21.4755C7.01963 21.4411 7.01994 21.4057 7.01994 21.3696V21.0407L6.97074 21.0341C6.73957 21.0027 6.54124 20.9356 6.37544 20.8211C6.20877 20.706 6.08398 20.5492 5.99095 20.3527M17.1376 20.0649L17.1477 15.1594M17.1376 20.0649L17.1477 15.1594M5.99095 20.3527L6.12646 20.2886L5.99095 20.3527L5.99095 20.3527ZM16.9164 9.57618L16.9164 9.57619C17.0081 9.70082 17.084 9.86972 17.1137 10.0181L16.9164 9.57618ZM16.9164 9.57618L16.8524 9.48933L16.8943 9.43321C16.9014 9.42369 16.9087 9.41412 16.9161 9.40441C16.9598 9.34725 17.0074 9.28484 17.0415 9.19515C17.0804 9.0926 17.101 8.96001 17.1139 8.74976C17.1378 8.36147 17.1378 7.65226 17.1376 6.25039C17.1376 6.13067 17.1376 6.0059 17.1376 5.87585C17.1376 4.37149 17.1373 3.60614 17.1273 3.19573C17.1223 2.99158 17.1148 2.86814 17.1023 2.78304C17.0886 2.68991 17.0686 2.64115 17.0456 2.5898L17.0456 2.58979M16.9164 9.57618L17.0456 2.58979M17.0456 2.58979C16.9151 2.29869 16.7514 2.12067 16.4792 1.98202L16.4792 1.98202M17.0456 2.58979L16.4792 1.98202M16.4792 1.98202L16.2642 1.87254L16.2322 1.85625M16.4792 1.98202L16.2322 1.85625M16.2322 1.85625L16.1963 1.8562M16.2322 1.85625L16.1963 1.8562M16.1963 1.8562L11.6173 1.85049M16.1963 1.8562L11.6173 1.85049M6.83844 8.99218L6.83844 8.99219L6.89704 9.04827H11.5046H16.1105L16.183 8.97629C16.2041 8.95524 16.2305 8.92113 16.2543 8.8821C16.2786 8.8423 16.294 8.80784 16.2995 8.78806C16.2987 8.79097 16.2987 8.79084 16.2992 8.786C16.2999 8.77978 16.3014 8.76576 16.3031 8.7404C16.3056 8.70218 16.308 8.6488 16.3102 8.57968C16.3145 8.44169 16.3178 8.24549 16.3201 7.99163C16.3247 7.48415 16.3251 6.74955 16.3214 5.79651C16.3207 5.62938 16.3201 5.47162 16.3196 5.32266C16.3148 4.04423 16.3125 3.41444 16.2871 3.08662C16.2726 2.89911 16.2516 2.84 16.2382 2.81763C16.2306 2.80507 16.2282 2.80354 16.2025 2.78697C16.1898 2.77876 16.1713 2.76684 16.1436 2.74803C16.1369 2.74587 16.1123 2.73944 16.0467 2.7335C15.9467 2.72444 15.7748 2.71765 15.4668 2.71267C14.8529 2.70274 13.7171 2.70016 11.5809 2.69725C10.3318 2.69557 9.1823 2.69752 8.33665 2.70203C7.91377 2.70429 7.56716 2.70719 7.32216 2.71058C7.19957 2.71228 7.10296 2.71409 7.03514 2.716C7.00111 2.71696 6.97517 2.71792 6.95714 2.71885C6.95034 2.7192 6.94524 2.71952 6.94158 2.71979C6.83594 2.74922 6.74413 2.84063 6.71199 2.96066M6.83844 8.99218L6.71198 2.96067L6.71199 2.96066M6.83844 8.99218C6.83365 8.98761 6.82917 8.98333 6.82497 8.97932M6.83844 8.99218L6.82497 8.97932M6.71199 2.96066C6.71285 2.95744 6.71281 2.95779 6.71224 2.96376M6.71199 2.96066L6.71224 2.96376M6.09135 9.40618L6.15408 9.49142L6.0907 9.57755C5.99977 9.7011 5.92394 9.87042 5.89438 10.0181L6.09135 9.40618ZM17.1477 15.1594C17.1513 13.4396 17.1507 12.1973 17.1457 11.3667M17.1477 15.1594L17.1457 11.3667M17.1457 11.3667C17.1431 10.9516 17.1395 10.6386 17.1346 10.4202M17.1457 11.3667L17.1346 10.4202M17.1346 10.4202C17.1322 10.311 17.1295 10.2246 17.1264 10.1604M17.1346 10.4202L17.1264 10.1604M17.1264 10.1604C17.1235 10.1008 17.1199 10.0493 17.1137 10.0182L17.1264 10.1604ZM11.6173 1.85049C10.3578 1.84893 9.19199 1.85116 8.32829 1.85602M11.6173 1.85049L8.32829 1.85602M8.32829 1.85602C7.89649 1.85845 7.5399 1.86154 7.28477 1.86514M8.32829 1.85602L7.28477 1.86514M7.28477 1.86514C7.15728 1.86694 7.05463 1.86888 6.98041 1.87095M7.28477 1.86514L6.98041 1.87095M6.98041 1.87095C6.94338 1.87198 6.91274 1.87306 6.88934 1.8742M6.98041 1.87095L6.88934 1.8742M6.88934 1.8742C6.87015 1.87514 6.84563 1.8765 6.82809 1.8796L6.88934 1.8742ZM6.82497 8.97932C6.77699 8.93352 6.76496 8.92205 6.75148 8.89049M6.82497 8.97932L6.75148 8.89049M6.75148 8.89049C6.73325 8.84782 6.71493 8.76633 6.70252 8.57328M6.75148 8.89049L6.70252 8.57328M6.70252 8.57328C6.67921 8.21048 6.67929 7.52397 6.67946 6.13254M6.70252 8.57328L6.67946 6.13254M6.67946 6.13254C6.67946 6.05915 6.67947 5.9838 6.67948 5.90642M6.67946 6.13254L6.67948 5.90642M6.67948 5.90642C6.67954 5.02549 6.68314 4.30169 6.68962 3.78756M6.67948 5.90642L6.68962 3.78756M6.68962 3.78756C6.69287 3.53039 6.69682 3.32635 6.70138 3.18158M6.68962 3.78756L6.70138 3.18158M6.70138 3.18158C6.70366 3.10908 6.70607 3.05242 6.70855 3.0118M6.70138 3.18158L6.70855 3.0118M6.70855 3.0118C6.71014 2.98569 6.71157 2.97081 6.71224 2.96376M6.70855 3.0118L6.71224 2.96376M6.93672 2.72019C6.93586 2.72031 6.93537 2.72035 6.93534 2.72035C6.93532 2.72034 6.93575 2.72029 6.93672 2.72019ZM16.183 10.0066C16.2041 10.0276 16.2304 10.0617 16.2542 10.1007C16.2764 10.1371 16.2911 10.1689 16.2976 10.1892C16.2979 10.1916 16.2984 10.1958 16.2989 10.2023C16.3001 10.2176 16.3015 10.2397 16.3028 10.2692C16.3054 10.328 16.3078 10.4117 16.31 10.521C16.3143 10.7393 16.3177 11.056 16.3199 11.4714C16.3245 12.3021 16.3249 13.5253 16.3212 15.1409C16.3159 17.419 16.3121 18.6314 16.3018 19.2869C16.2966 19.6155 16.2899 19.7999 16.281 19.9075C16.2746 19.9842 16.2676 20.0105 16.2656 20.0166C16.2398 20.0566 16.1816 20.1169 16.1435 20.1436C16.1366 20.1458 16.1117 20.1521 16.046 20.158C15.945 20.1669 15.7709 20.1735 15.4582 20.1781C14.835 20.1872 13.6799 20.1882 11.504 20.1882C9.32813 20.1882 8.17309 20.1872 7.54986 20.1781C7.23719 20.1735 7.06302 20.1669 6.96202 20.158C6.89639 20.1521 6.87144 20.1458 6.86455 20.1436C6.82646 20.1169 6.76821 20.0565 6.74244 20.0166C6.74042 20.0105 6.73342 19.9843 6.72706 19.9079C6.71815 19.8008 6.71142 19.6171 6.70628 19.2898C6.69603 18.6369 6.69229 17.4294 6.68717 15.1605C6.68417 13.8327 6.68391 12.6115 6.68589 11.7137C6.68688 11.2647 6.68843 10.8969 6.69049 10.637C6.69151 10.507 6.69266 10.4044 6.69392 10.3324C6.69455 10.2963 6.6952 10.2684 6.69585 10.2488C6.6963 10.2354 6.69669 10.2289 6.69676 10.227C6.70496 10.1877 6.73496 10.1238 6.7831 10.0587C6.8252 10.0018 6.86542 9.96532 6.89044 9.9489C6.90676 9.94799 6.93026 9.94705 6.96124 9.9461C7.02698 9.94408 7.12216 9.94216 7.24401 9.94037C7.4875 9.9368 7.83498 9.93378 8.26095 9.93146C9.11276 9.92681 10.2771 9.92497 11.5484 9.92704L16.1104 9.93448L16.183 10.0066ZM8.90433 21.1785V21.3022H8.37595H7.84757V21.1785V21.0549H8.37595H8.90433V21.1785ZM15.1605 21.1785V21.3022H14.6321H14.1037V21.1785V21.0549H14.6321H15.1605V21.1785Z" fill="#8FA0A0" stroke="#8FA0A0" stroke-width="0.3"/>
</svg>
