<svg width="32" height="32" viewBox="0 0 32 32" fill="none" xmlns="http://www.w3.org/2000/svg">
<path d="M16 14.3333C16.5523 14.3333 17 14.7811 17 15.3333V22C17 22.5523 16.5523 23 16 23C15.4477 23 15 22.5523 15 22V15.3333C15 14.7811 15.4477 14.3333 16 14.3333Z" fill="#057CD1"/>
<path d="M16.0013 12C16.7377 12 17.3346 11.4031 17.3346 10.6667C17.3346 9.9303 16.7377 9.33334 16.0013 9.33334C15.2649 9.33334 14.668 9.9303 14.668 10.6667C14.668 11.4031 15.2649 12 16.0013 12Z" fill="#057CD1"/>
<path fill-rule="evenodd" clip-rule="evenodd" d="M4.33203 16C4.33203 9.55669 9.55538 4.33334 15.9987 4.33334C22.442 4.33334 27.6654 9.55669 27.6654 16C27.6654 22.4433 22.442 27.6667 15.9987 27.6667C9.55538 27.6667 4.33203 22.4433 4.33203 16ZM15.9987 6.33334C10.66 6.33334 6.33203 10.6613 6.33203 16C6.33203 21.3388 10.66 25.6667 15.9987 25.6667C21.3375 25.6667 25.6654 21.3388 25.6654 16C25.6654 10.6613 21.3375 6.33334 15.9987 6.33334Z" fill="#057CD1"/>
</svg>
