<svg width="18" height="19" viewBox="0 0 18 19" fill="none" xmlns="http://www.w3.org/2000/svg">
<path d="M6 8C6 6.34314 7.34317 5 9 5C10.6568 5 12 6.34314 12 8C12 9.65683 10.6568 11 9 11C7.34317 11 6 9.65683 6 8Z" fill="#D2D7D7"/>
<path fill-rule="evenodd" clip-rule="evenodd" d="M2.02493 7.21887C2.3163 3.70461 5.27013 1 8.81693 1H9.18313C12.7299 1 15.6837 3.70461 15.9751 7.21887C16.1319 9.11099 15.5441 10.9898 14.3353 12.4595L10.2714 17.4008C9.61427 18.1997 8.38578 18.1997 7.72867 17.4008L3.66471 12.4595C2.45593 10.9898 1.86805 9.11099 2.02493 7.21887ZM8.99998 4.16111C6.7757 4.16111 4.97255 5.9538 4.97255 8.16519C4.97255 10.3766 6.7757 12.1693 8.99998 12.1693C11.2243 12.1693 13.0274 10.3766 13.0274 8.16519C13.0274 5.9538 11.2243 4.16111 8.99998 4.16111Z" fill="#E1E4E4"/>
</svg>
