<svg width="28" height="28" viewBox="0 0 28 28" fill="none" xmlns="http://www.w3.org/2000/svg">
<circle cx="14" cy="14" r="13.5" fill="#FAFDFD" stroke="#E1E4E4"/>
<circle cx="23.5" cy="4.5" r="3.5" fill="#BD7F06"/>
<g clip-path="url(#clip0_1330_117595)">
<path d="M10.4837 19.999C10.3562 19.9989 10.2322 19.9571 10.1307 19.8799C10.0292 19.8027 9.95581 19.6944 9.92173 19.5715C9.88766 19.4487 9.89478 19.318 9.94201 19.1996C9.98924 19.0811 10.074 18.9814 10.1833 18.9157C12.25 17.6744 12.25 15.0086 12.25 13.4161C12.25 12.9519 12.4344 12.5068 12.7626 12.1786C13.0908 11.8504 13.5359 11.6661 14 11.6661C14.4641 11.6661 14.9092 11.8504 15.2374 12.1786C15.5656 12.5068 15.75 12.9519 15.75 13.4161C15.75 13.5708 15.6885 13.7191 15.5791 13.8285C15.4697 13.9379 15.3214 13.9994 15.1667 13.9994C15.012 13.9994 14.8636 13.9379 14.7542 13.8285C14.6448 13.7191 14.5833 13.5708 14.5833 13.4161C14.5833 13.2613 14.5219 13.113 14.4125 13.0036C14.3031 12.8942 14.1547 12.8327 14 12.8327C13.8453 12.8327 13.6969 12.8942 13.5875 13.0036C13.4781 13.113 13.4167 13.2613 13.4167 13.4161C13.4167 15.1351 13.4167 18.3359 10.7835 19.9161C10.6929 19.9704 10.5893 19.999 10.4837 19.999ZM13.3788 20.8279C14.7099 19.4862 15.4875 17.5997 15.6893 15.2156C15.6961 15.1392 15.6878 15.0621 15.6647 14.9889C15.6417 14.9156 15.6044 14.8476 15.555 14.7888C15.5057 14.73 15.4452 14.6816 15.377 14.6462C15.3089 14.6108 15.2344 14.5893 15.1579 14.5827C15.0814 14.5749 15.004 14.5825 14.9305 14.6052C14.857 14.6278 14.7887 14.6651 14.7299 14.7147C14.6711 14.7643 14.6228 14.8252 14.588 14.8938C14.5532 14.9624 14.5326 15.0374 14.5273 15.1141C14.3459 17.2474 13.6996 18.8475 12.551 20.0031C12.4419 20.1128 12.3809 20.2614 12.3814 20.4162C12.3819 20.5709 12.4439 20.7191 12.5536 20.8282C12.6634 20.9373 12.812 20.9983 12.9667 20.9978C13.1215 20.9973 13.2697 20.9353 13.3788 20.8256V20.8279ZM16.4121 20.7194C16.7659 20.1315 17.0606 19.5099 17.2918 18.8638C17.3401 18.7193 17.3299 18.5616 17.2635 18.4245C17.1971 18.2874 17.0797 18.1817 16.9363 18.13C16.793 18.0784 16.6351 18.0848 16.4965 18.148C16.3579 18.2113 16.2495 18.3262 16.1945 18.4683C15.9891 19.0412 15.7277 19.5924 15.414 20.1139C15.3742 20.1794 15.3478 20.2521 15.3361 20.3279C15.3245 20.4037 15.3279 20.481 15.3461 20.5554C15.3643 20.6299 15.397 20.7 15.4424 20.7618C15.4877 20.8236 15.5448 20.8759 15.6103 20.9157C15.7426 20.996 15.9015 21.0204 16.0518 20.9836C16.1263 20.9654 16.1964 20.9327 16.2582 20.8873C16.3201 20.842 16.3723 20.7849 16.4121 20.7194ZM17.7917 17.0275C18.0078 15.8362 18.1055 14.6265 18.0833 13.4161C18.0828 12.5896 17.8315 11.7829 17.3627 11.1023C16.8938 10.4217 16.2295 9.89946 15.4576 9.60446C14.6856 9.30947 13.8423 9.25565 13.0391 9.45012C12.2359 9.64459 11.5106 10.0782 10.9591 10.6936C10.9054 10.7502 10.8636 10.817 10.8361 10.89C10.8087 10.9631 10.7961 11.0409 10.7993 11.1188C10.8025 11.1968 10.8212 11.2733 10.8545 11.3439C10.8877 11.4145 10.9348 11.4777 10.9929 11.5297C11.051 11.5818 11.119 11.6217 11.1928 11.647C11.2666 11.6723 11.3447 11.6826 11.4225 11.6772C11.5004 11.6718 11.5763 11.6508 11.6459 11.6155C11.7155 11.5803 11.7773 11.5314 11.8277 11.4718C12.2216 11.0321 12.7396 10.7223 13.3134 10.5834C13.8871 10.4444 14.4895 10.4828 15.0409 10.6935C15.5924 10.9041 16.0669 11.2772 16.4018 11.7633C16.7367 12.2494 16.9163 12.8257 16.9167 13.4161C16.9382 14.5517 16.8479 15.6867 16.6472 16.8046C16.6177 16.9564 16.6497 17.1136 16.7361 17.2418C16.8225 17.37 16.9563 17.4587 17.108 17.4883C17.1451 17.4957 17.1828 17.4994 17.2206 17.4994C17.3557 17.499 17.4865 17.4518 17.5907 17.3657C17.6948 17.2797 17.7659 17.1601 17.7917 17.0275ZM11.0833 13.4161C11.0832 13.2532 11.0966 13.0907 11.1236 12.9301C11.141 12.8528 11.1425 12.7728 11.128 12.6949C11.1134 12.617 11.0832 12.5429 11.0391 12.4771C10.9949 12.4113 10.9379 12.3551 10.8713 12.3121C10.8048 12.2691 10.7302 12.24 10.6521 12.2268C10.574 12.2135 10.494 12.2163 10.417 12.235C10.34 12.2537 10.2676 12.2879 10.2042 12.3355C10.1408 12.3831 10.0879 12.4431 10.0484 12.5118C10.009 12.5805 9.98405 12.6566 9.975 12.7353C9.93649 12.9602 9.91698 13.1879 9.91667 13.4161C9.91667 16.1256 9.1315 17.4994 7.58333 17.4994C7.42862 17.4994 7.28025 17.5608 7.17085 17.6702C7.06146 17.7796 7 17.928 7 18.0827C7 18.2374 7.06146 18.3858 7.17085 18.4952C7.28025 18.6046 7.42862 18.6661 7.58333 18.6661C9.84025 18.6661 11.0833 16.7994 11.0833 13.4161ZM19.075 20.6576C20.035 18.3675 20.4925 15.8981 20.4167 13.4161C20.4194 12.4471 20.1998 11.4904 19.775 10.6196C19.7415 10.5506 19.6947 10.4889 19.6374 10.4381C19.58 10.3872 19.5132 10.3481 19.4408 10.3231C19.3683 10.298 19.2916 10.2875 19.2151 10.2921C19.1386 10.2966 19.0637 10.3162 18.9948 10.3498C18.9258 10.3833 18.8642 10.43 18.8133 10.4874C18.7624 10.5447 18.7234 10.6115 18.6983 10.684C18.6733 10.7564 18.6627 10.8331 18.6673 10.9096C18.6719 10.9862 18.6915 11.061 18.725 11.13C19.0721 11.842 19.2517 12.624 19.25 13.4161C19.3234 15.7312 18.902 18.0353 18.0139 20.1746C17.9823 20.2444 17.9648 20.3198 17.9623 20.3965C17.9599 20.4731 17.9725 20.5495 17.9996 20.6212C18.0267 20.6929 18.0677 20.7586 18.1202 20.8145C18.1727 20.8704 18.2357 20.9154 18.3056 20.9469C18.3811 20.9816 18.4633 20.9995 18.5465 20.9994C18.6581 20.9989 18.7671 20.9665 18.8608 20.9059C18.9545 20.8453 19.0288 20.7591 19.075 20.6576ZM8.75 15.1661V13.4161C8.75154 12.0241 9.30516 10.6897 10.2894 9.70545C11.2736 8.72122 12.6081 8.1676 14 8.16606C15.1366 8.16227 16.243 8.53109 17.15 9.21606C17.2738 9.30888 17.4293 9.34874 17.5825 9.32686C17.7357 9.30498 17.8738 9.22316 17.9667 9.09939C18.0595 8.97562 18.0994 8.82005 18.0775 8.66689C18.0556 8.51374 17.9738 8.37555 17.85 8.28272C16.7413 7.44589 15.3891 6.99514 14 6.99939C12.2988 7.0014 10.6679 7.67808 9.46495 8.881C8.26202 10.0839 7.58534 11.7149 7.58333 13.4161V15.1661C7.58333 15.3208 7.64479 15.4691 7.75419 15.5785C7.86358 15.6879 8.01196 15.7494 8.16667 15.7494C8.32138 15.7494 8.46975 15.6879 8.57915 15.5785C8.68854 15.4691 8.75 15.3208 8.75 15.1661Z" fill="#374957"/>
</g>
<defs>
<clipPath id="clip0_1330_117595">
<rect width="14" height="14" fill="white" transform="translate(7 7)"/>
</clipPath>
</defs>
</svg>
