<svg width="24" height="25" viewBox="0 0 24 25" fill="none" xmlns="http://www.w3.org/2000/svg">
<rect y="0.545456" width="24" height="24" rx="8" fill="#012E2E"/>
<path d="M11.4375 5.6045C11.4375 5.51705 11.3626 5.44804 11.2756 5.45683C7.6808 5.81982 4.875 8.85497 4.875 12.5455C4.875 16.4805 8.06497 19.6705 12 19.6705C13.9775 19.6705 15.767 18.8645 17.0576 17.5641C17.1192 17.502 17.1124 17.4005 17.0443 17.3455L11.6465 12.9829C11.5143 12.8761 11.4375 12.7153 11.4375 12.5455V5.6045Z" fill="white"/>
<path d="M17.7506 16.471C17.8185 16.526 17.9191 16.5114 17.9669 16.4382C18.5738 15.5096 18.9698 14.4305 19.0871 13.2695C19.0958 13.1825 19.0268 13.108 18.9394 13.108H14.0135C13.8722 13.108 13.8093 13.2857 13.9193 13.3746L17.7506 16.471Z" fill="white" fill-opacity="0.5"/>
<path d="M18.941 11.983C19.0284 11.983 19.0974 11.9081 19.0886 11.8211C18.7497 8.46447 16.081 5.79575 12.7244 5.45682C12.6374 5.44804 12.5625 5.51706 12.5625 5.60451V11.758C12.5625 11.8822 12.6632 11.983 12.7875 11.983H18.941Z" fill="white" fill-opacity="0.5"/>
</svg>
