<svg width="24" height="24" viewBox="0 0 24 24" fill="none" xmlns="http://www.w3.org/2000/svg">
<rect width="24" height="24" rx="8" fill="#012E2E"/>
<path d="M6.49994 8.37536H7.86781C8.13778 9.36869 9.16187 9.95508 10.1552 9.68511C10.7932 9.51171 11.2915 9.01334 11.4649 8.37536H17.4988C17.7749 8.37536 17.9988 8.15153 17.9988 7.87542C17.9988 7.59931 17.7749 7.37548 17.4988 7.37548H11.4649C11.195 6.38213 10.1709 5.79574 9.17755 6.06571C8.53957 6.23911 8.0412 6.73748 7.86781 7.37546H6.49994C6.22383 7.37546 6 7.59929 6 7.8754C6 8.15151 6.22383 8.37536 6.49994 8.37536Z" fill="white"/>
<path d="M17.4988 11.5003H16.131C15.8615 10.5071 14.838 9.9204 13.8448 10.1898C13.2063 10.363 12.7075 10.8618 12.5343 11.5003H6.49994C6.22383 11.5003 6 11.7241 6 12.0002C6 12.2764 6.22383 12.5002 6.49994 12.5002H12.5343C12.8038 13.4934 13.8273 14.0801 14.8205 13.8107C15.459 13.6375 15.9578 13.1387 16.131 12.5002H17.4988C17.7749 12.5002 17.9988 12.2764 17.9988 12.0002C17.9988 11.7241 17.7749 11.5003 17.4988 11.5003Z" fill="white" fill-opacity="0.5"/>
<path d="M17.4988 15.6247H11.4649C11.195 14.6313 10.1709 14.0449 9.17755 14.3149C8.53957 14.4883 8.0412 14.9867 7.86781 15.6247H6.49994C6.22383 15.6247 6 15.8485 6 16.1246C6 16.4007 6.22383 16.6245 6.49994 16.6245H7.86781C8.13778 17.6179 9.16187 18.2043 10.1552 17.9343C10.7932 17.7609 11.2915 17.2625 11.4649 16.6245H17.4988C17.7749 16.6245 17.9988 16.4007 17.9988 16.1246C17.9988 15.8485 17.7749 15.6247 17.4988 15.6247Z" fill="white"/>
</svg>
