<svg width="24" height="24" viewBox="0 0 24 24" fill="none" xmlns="http://www.w3.org/2000/svg">
<path d="M10 13.25C10.4142 13.25 10.75 13.5858 10.75 14V16C10.75 16.4142 10.4142 16.75 10 16.75C9.58579 16.75 9.25 16.4142 9.25 16V14C9.25 13.5858 9.58579 13.25 10 13.25Z" fill="#299B9B"/>
<path d="M14.75 14C14.75 13.5858 14.4142 13.25 14 13.25C13.5858 13.25 13.25 13.5858 13.25 14V16C13.25 16.4142 13.5858 16.75 14 16.75C14.4142 16.75 14.75 16.4142 14.75 16V14Z" fill="#299B9B"/>
<path fill-rule="evenodd" clip-rule="evenodd" d="M9.64952 3.37512C9.85662 3.0164 9.73372 2.55771 9.375 2.3506C9.01628 2.1435 8.55759 2.2664 8.35048 2.62512L6.35048 6.08922C6.32052 6.14112 6.29746 6.19511 6.28103 6.25012H6C4.48122 6.25012 3.25 7.48134 3.25 9.00012C3.25 9.85925 3.64397 10.6263 4.26109 11.1306L4.92803 15.7153L5.37478 17.8085C5.64244 19.0626 6.66623 20.0152 7.93636 20.1919C10.6325 20.5671 13.3675 20.5671 16.0636 20.1919C17.3338 20.0152 18.3576 19.0626 18.6252 17.8085L19.072 15.7153L19.7389 11.1306C20.356 10.6263 20.75 9.85925 20.75 9.00012C20.75 7.48134 19.5188 6.25012 18 6.25012H17.719C17.7025 6.19511 17.6795 6.14112 17.6495 6.08922L15.6495 2.62512C15.4424 2.2664 14.9837 2.1435 14.625 2.3506C14.2663 2.55771 14.1434 3.0164 14.3505 3.37512L16.0104 6.25012H7.98963L9.64952 3.37512ZM18.1335 11.7469C18.0892 11.749 18.0447 11.7501 18 11.7501H6C5.95525 11.7501 5.91076 11.749 5.86653 11.7469L6.4053 15.4505L6.84174 17.4954C6.97772 18.1325 7.49783 18.6164 8.14308 18.7062C10.702 19.0623 13.298 19.0623 15.8569 18.7062C16.5022 18.6164 17.0223 18.1325 17.1583 17.4954L17.5947 15.4505L18.1335 11.7469ZM4.75 9.00012C4.75 8.30977 5.30964 7.75012 6 7.75012H18C18.6904 7.75012 19.25 8.30977 19.25 9.00012C19.25 9.69048 18.6904 10.2501 18 10.2501H6C5.30964 10.2501 4.75 9.69048 4.75 9.00012Z" fill="#299B9B"/>
</svg>
