<svg width="24" height="24" viewBox="0 0 24 24" fill="none" xmlns="http://www.w3.org/2000/svg">
<path fill-rule="evenodd" clip-rule="evenodd" d="M13.1554 3.36026C12.4843 3.00999 11.5749 3.00459 10.8985 3.35396C8.30548 4.6931 5.95361 6.22853 3.89264 7.93154C3.57393 8.19489 3.34775 8.57758 3.35161 9.02802C3.35545 9.47662 3.58623 9.85419 3.90301 10.1132C5.94686 11.7843 8.30067 13.3212 10.8462 14.6497C11.5173 15 12.4267 15.0054 13.1032 14.656C15.6961 13.3169 18.048 11.7814 20.109 10.0784C20.4277 9.81511 20.6539 9.43242 20.65 8.98197C20.6461 8.53338 20.4154 8.1558 20.0986 7.89679C18.0547 6.22562 15.7009 4.6888 13.1554 3.36026ZM11.5868 4.68671C11.8264 4.56294 12.2201 4.56411 12.4614 4.69004C14.8907 5.95796 17.1291 7.41666 19.0684 8.99223C17.1176 10.5931 14.8858 12.0471 12.4149 13.3232C12.1752 13.447 11.7815 13.4458 11.5402 13.3199C9.11086 12.052 6.87245 10.5933 4.93322 9.01777C6.88403 7.41684 9.11578 5.96285 11.5868 4.68671Z" fill="#8FA0A0"/>
<path d="M21.1954 12.6982C21.4148 13.0495 21.3078 13.5122 20.9564 13.7316L14.8492 17.5445C14.0205 18.0619 12.9923 18.3011 11.9983 18.3011C11.0044 18.3012 9.97611 18.0621 9.14725 17.5448L3.10692 13.7751C2.75552 13.5558 2.64844 13.0931 2.86775 12.7417C3.08705 12.3903 3.5497 12.2832 3.90109 12.5025L9.94142 16.2723C10.4856 16.6119 11.2248 16.8012 11.9982 16.8011C12.7717 16.8011 13.5108 16.6117 14.0548 16.2721L20.1621 12.4592C20.5134 12.2398 20.9761 12.3468 21.1954 12.6982Z" fill="#8FA0A0"/>
<path d="M21.1954 16.4524C21.4148 16.8038 21.3078 17.2664 20.9565 17.4858L15.6676 20.7887C14.61 21.4492 13.287 21.7599 11.9983 21.76C10.7096 21.7601 9.38649 21.4495 8.32871 20.7892L3.10684 17.5293C2.75547 17.31 2.64845 16.8473 2.8678 16.496C3.08714 16.1446 3.5498 16.0376 3.90117 16.2569L9.12303 19.5167C9.89605 19.9993 10.93 20.2601 11.9982 20.26C13.0664 20.2599 14.1002 19.9991 14.8731 19.5164L20.162 16.2136C20.5133 15.9942 20.976 16.1011 21.1954 16.4524Z" fill="#8FA0A0"/>
</svg>
