<svg width="18" height="18" viewBox="0 0 18 18" fill="none" xmlns="http://www.w3.org/2000/svg">
<path d="M7.5 1.6875C7.18934 1.6875 6.9375 1.93934 6.9375 2.25V2.8125H3.75C3.43934 2.8125 3.1875 3.06434 3.1875 3.375C3.1875 3.68566 3.43934 3.9375 3.75 3.9375H14.25C14.5606 3.9375 14.8125 3.68566 14.8125 3.375C14.8125 3.06434 14.5606 2.8125 14.25 2.8125H11.0625V2.25C11.0625 1.93934 10.8106 1.6875 10.5 1.6875H7.5Z" fill="#BB0A0A"/>
<path d="M7.5 7.98749C7.81065 7.98749 8.0625 8.23934 8.0625 8.54999V13.8C8.0625 14.1106 7.81065 14.3625 7.5 14.3625C7.18934 14.3625 6.9375 14.1106 6.9375 13.8V8.54999C6.9375 8.23934 7.18934 7.98749 7.5 7.98749Z" fill="#BB0A0A"/>
<path d="M11.0625 8.54999C11.0625 8.23934 10.8106 7.98749 10.5 7.98749C10.1894 7.98749 9.9375 8.23934 9.9375 8.54999V13.8C9.9375 14.1106 10.1894 14.3625 10.5 14.3625C10.8106 14.3625 11.0625 14.1106 11.0625 13.8V8.54999Z" fill="#BB0A0A"/>
<path fill-rule="evenodd" clip-rule="evenodd" d="M4.49384 5.93788C4.5255 5.65301 4.76628 5.4375 5.0529 5.4375H12.9477C13.2343 5.4375 13.4751 5.65301 13.5067 5.93788L13.6568 7.28889C13.9289 9.73785 13.9289 12.2095 13.6568 14.6584L13.642 14.7915C13.534 15.7636 12.7806 16.5388 11.8119 16.6744C9.94663 16.9355 8.05392 16.9355 6.18858 16.6744C5.21993 16.5388 4.46652 15.7636 4.35851 14.7915L4.34373 14.6584C4.07162 12.2095 4.07162 9.73785 4.34373 7.28889L4.49384 5.93788ZM5.55637 6.5625L5.46185 7.41313C5.19892 9.77955 5.19892 12.1678 5.46185 14.5342L5.47662 14.6672C5.52786 15.1282 5.88516 15.4959 6.34456 15.5602C8.10642 15.8068 9.89412 15.8068 11.6559 15.5602C12.1154 15.4959 12.4727 15.1282 12.5239 14.6672L12.5387 14.5342C12.8016 12.1678 12.8016 9.77955 12.5387 7.41313L12.4442 6.5625H5.55637Z" fill="#BB0A0A"/>
</svg>
