<svg width="18" height="18" viewBox="0 0 18 18" fill="none" xmlns="http://www.w3.org/2000/svg">
<path fill-rule="evenodd" clip-rule="evenodd" d="M4 0.250122C4.41421 0.250122 4.75 0.585912 4.75 1.00012V2.66775C7.5777 2.41592 10.4223 2.41592 13.25 2.66775V1.00012C13.25 0.585912 13.5858 0.250122 14 0.250122C14.4142 0.250122 14.75 0.585912 14.75 1.00012V2.81656C16.243 3.02766 17.4226 4.20859 17.6222 5.71496L17.7088 6.36791C18.0728 9.11422 18.0414 11.8985 17.6154 14.636C17.4044 15.992 16.3028 17.0336 14.937 17.1682L13.744 17.2859C10.589 17.597 7.411 17.597 4.25593 17.2859L3.06292 17.1682C1.69718 17.0336 0.595522 15.992 0.384512 14.636C-0.0414479 11.8985 -0.0728878 9.11422 0.291152 6.36791L0.377702 5.71496C0.577382 4.20857 1.75693 3.02763 3.25 2.81655V1.00012C3.25 0.585912 3.58579 0.250122 4 0.250122ZM4.44516 4.20292C7.4744 3.9042 10.5256 3.9042 13.5548 4.20292L14.4602 4.29222C15.327 4.37769 16.0208 5.04866 16.1352 5.91206L16.2218 6.56501C16.252 6.79312 16.2794 7.02152 16.3039 7.25012H1.69606C1.72055 7.02152 1.7479 6.79313 1.77814 6.56502L1.86469 5.91206C1.97914 5.04866 2.67296 4.37769 3.53971 4.29222L4.44516 4.20292ZM1.57683 8.75012C1.47865 10.6382 1.57538 12.5333 1.86667 14.4053C1.97251 15.0855 2.52509 15.6079 3.21013 15.6755L4.40314 15.7931C7.4603 16.0946 10.5397 16.0946 13.5968 15.7931L14.7898 15.6755C15.4748 15.6079 16.0274 15.0855 16.1333 14.4053C16.4246 12.5333 16.5213 10.6382 16.4231 8.75012H1.57683Z" fill="#299B9B"/>
</svg>
